<!-- Generated by IcoMoon.io -->
<svg version="1.1" xmlns="http://www.w3.org/2000/svg" width="27" height="32" viewBox="0 0 27 32">
<title>group29</title>
<path fill="#3fa9f5" d="M9.771 11.738c3.144 0 5.702-2.558 5.702-5.702s-2.558-5.701-5.702-5.701c-3.145 0-5.702 2.557-5.702 5.701s2.558 5.702 5.702 5.702zM9.771 1.567c2.465 0 4.471 2.006 4.471 4.47s-2.006 4.471-4.471 4.471-4.471-2.006-4.471-4.471c0-2.465 2.006-4.47 4.471-4.47z"></path>
<path fill="#3fa9f5" d="M11.692 23.384h-10.442c0.297-4.572 3.882-8.070 8.404-8.070 1.672 0 3.013 0.332 4.219 1.043l0.625-1.060c-1.404-0.828-2.943-1.214-4.844-1.214-5.414 0-9.655 4.356-9.655 9.916v0.615h11.692v-1.23z"></path>
<path fill="#3fa9f5" d="M26.91 28.319l-3.558-4.35c0.41-0.718 0.647-1.546 0.647-2.43 0-2.714-2.209-4.923-4.923-4.923s-4.923 2.209-4.923 4.923c0 0.884 0.238 1.713 0.647 2.43l-3.558 4.35c-0.151 0.185-0.182 0.442-0.078 0.657s0.305 0.35 0.563 0.348l2.412-0.035 0.857 2.237c0.086 0.225 0.296 0.379 0.537 0.394 0.013 0.001 0.025 0.001 0.038 0.001 0.226 0 0.436-0.125 0.543-0.326l2.735-5.144c0.075 0.004 0.15 0.012 0.226 0.012s0.151-0.008 0.226-0.012l2.735 5.144c0.107 0.201 0.317 0.326 0.543 0.326 0.013 0 0.025-0.001 0.038-0.001 0.241-0.015 0.45-0.169 0.537-0.394l0.857-2.237 2.412 0.035c0.261 0.005 0.459-0.133 0.563-0.348s0.073-0.472-0.079-0.657zM15.663 29.823l-0.527-1.376c-0.092-0.242-0.298-0.408-0.583-0.396l-1.519 0.022 2.53-3.092c0.553 0.565 1.242 0.998 2.013 1.245l-1.913 3.598zM15.385 21.538c0-2.036 1.656-3.692 3.692-3.692s3.692 1.656 3.692 3.692c0 2.036-1.656 3.692-3.692 3.692s-3.692-1.656-3.692-3.692zM23.602 28.052c-0.252-0.009-0.491 0.154-0.583 0.396l-0.527 1.376-1.913-3.598c0.771-0.247 1.459-0.68 2.013-1.245l2.53 3.092-1.519-0.022z"></path>
</svg>
