<!-- Generated by IcoMoon.io -->
<svg version="1.1" xmlns="http://www.w3.org/2000/svg" width="46" height="32" viewBox="0 0 46 32">
<title>group36</title>
<path fill="#3fa9f5" d="M40.331 16.8l-4-4h-2.4l-4-4h-13.131v-8.8h-4.8v8.8h-4.8v4h-2.4v4h-4.27l4.471 15.2h33.934l6.258-15.2h-4.863zM13.6 1.6h1.6v7.2h-1.6v-7.2zM8.8 10.4h20.469l2.4 2.4h-22.869v-2.4zM6.4 14.4h29.269l2.4 2.4h-31.669v-2.4zM37.864 30.4h-31.666l-3.529-12h40.136l-4.942 12z"></path>
<path fill="#3fa9f5" d="M12 21.2c-1.765 0-3.2 1.435-3.2 3.2s1.435 3.2 3.2 3.2c1.765 0 3.2-1.435 3.2-3.2s-1.435-3.2-3.2-3.2zM12 26c-0.882 0-1.6-0.718-1.6-1.6s0.718-1.6 1.6-1.6c0.882 0 1.6 0.718 1.6 1.6s-0.718 1.6-1.6 1.6z"></path>
<path fill="#3fa9f5" d="M22.4 21.2c-1.765 0-3.2 1.435-3.2 3.2s1.435 3.2 3.2 3.2c1.765 0 3.2-1.435 3.2-3.2s-1.435-3.2-3.2-3.2zM22.4 26c-0.882 0-1.6-0.718-1.6-1.6s0.718-1.6 1.6-1.6c0.882 0 1.6 0.718 1.6 1.6s-0.718 1.6-1.6 1.6z"></path>
<path fill="#3fa9f5" d="M32.8 21.2c-1.765 0-3.2 1.435-3.2 3.2s1.435 3.2 3.2 3.2c1.765 0 3.2-1.435 3.2-3.2s-1.435-3.2-3.2-3.2zM32.8 26c-0.882 0-1.6-0.718-1.6-1.6s0.718-1.6 1.6-1.6c0.882 0 1.6 0.718 1.6 1.6s-0.718 1.6-1.6 1.6z"></path>
</svg>
