<!-- Generated by IcoMoon.io -->
<svg version="1.1" xmlns="http://www.w3.org/2000/svg" width="33" height="32" viewBox="0 0 33 32">
<title>group35</title>
<path fill="#3fa9f5" d="M30.202 0h-26.98c-1.716 0-3.221 1.642-3.221 3.514v17.569c0 1.736 1.414 3.095 3.221 3.095h1.756v7.312l7.932-7.312h17.291c1.806 0 3.221-1.36 3.221-3.095v-17.569c0.001-1.872-1.504-3.514-3.22-3.514zM32 21.082c0 0.954-0.773 1.673-1.798 1.673h-17.847l-5.955 5.488v-5.488h-3.179c-1.025 0-1.798-0.72-1.798-1.673v-17.569c0-1.055 0.891-2.091 1.798-2.091h26.98c0.907 0 1.798 1.036 1.798 2.091v17.569h0.001z"></path>
<path fill="#3fa9f5" d="M16.285 4.535c-4.26 0-7.726 3.454-7.726 7.699s3.466 7.699 7.726 7.699c4.26 0 7.725-3.454 7.725-7.699s-3.465-7.699-7.725-7.699zM22.522 11.378h-2.953c-0.087-1.894-0.454-3.728-1.086-5.020 2.133 0.795 3.72 2.707 4.038 5.020zM16.285 18.406c-0.599 0-1.74-1.976-1.871-5.606h3.74c-0.13 3.631-1.271 5.606-1.869 5.606zM14.421 11.378c0.164-3.507 1.275-5.41 1.863-5.41s1.7 1.904 1.862 5.41h-3.725zM14.087 6.358c-0.633 1.291-1 3.125-1.087 5.020h-2.953c0.318-2.313 1.905-4.225 4.040-5.020zM10.009 12.8h2.982c0.072 2.023 0.464 3.993 1.157 5.333-2.255-0.814-3.916-2.866-4.139-5.333zM18.42 18.133c0.693-1.338 1.084-3.309 1.156-5.333h2.982c-0.223 2.466-1.883 4.52-4.139 5.333z"></path>
</svg>
