<!-- Generated by IcoMoon.io -->
<svg version="1.1" xmlns="http://www.w3.org/2000/svg" width="39" height="32" viewBox="0 0 39 32">
<title>group30</title>
<path fill="#3fa9f5" d="M34.667 6.222h-8v-1.778c0-2.451-1.994-4.444-4.444-4.444h-5.333c-2.451 0-4.444 1.994-4.444 4.444v1.778h-8c-2.451 0-4.444 1.994-4.444 4.444v16.889c0 2.451 1.994 4.444 4.444 4.444h30.222c2.451 0 4.444-1.994 4.444-4.444v-16.889c0-2.451-1.994-4.444-4.444-4.444zM14.222 4.444c0-1.47 1.196-2.667 2.667-2.667h5.333c1.47 0 2.667 1.196 2.667 2.667v1.778h-10.667v-1.778zM37.333 27.556c0 1.47-1.196 2.667-2.667 2.667h-30.222c-1.47 0-2.667-1.196-2.667-2.667v-16.889c0-1.47 1.196-2.667 2.667-2.667h30.222c1.47 0 2.667 1.196 2.667 2.667v16.889z"></path>
<path fill="#3fa9f5" d="M12.444 20.444h-1.778v7.111h1.778v-7.111z"></path>
<path fill="#3fa9f5" d="M17.778 17.778h-1.778v9.778h1.778v-9.778z"></path>
<path fill="#3fa9f5" d="M23.111 15.111h-1.778v12.444h1.778v-12.444z"></path>
<path fill="#3fa9f5" d="M28.444 12.444h-1.778v15.111h1.778v-15.111z"></path>
</svg>
