<!-- Generated by IcoMoon.io -->
<svg version="1.1" xmlns="http://www.w3.org/2000/svg" width="31" height="32" viewBox="0 0 31 32">
<title>group31</title>
<path fill="#3fa9f5" d="M30.578 4.978c0-2.744-2.233-4.978-4.978-4.978h-20.622c-2.745 0-4.978 2.234-4.978 4.978v24.178h4.267v2.844h1.422v-2.844h19.2v2.844h1.422v-2.844h4.267v-24.178zM19.492 17.067c-0.341-2.015-2.092-3.556-4.203-3.556s-3.862 1.541-4.203 3.556h-9.664v-11.378h27.733v11.378h-9.664zM18.032 17.067h-5.487c0.318-1.224 1.422-2.133 2.743-2.133s2.426 0.909 2.743 2.133zM4.978 1.422h20.622c1.717 0 3.153 1.224 3.484 2.844h-27.59c0.331-1.621 1.766-2.844 3.484-2.844zM1.422 27.733v-9.244h27.733v9.244h-27.733z"></path>
<path fill="#3fa9f5" d="M6.756 19.911c-1.764 0-3.2 1.436-3.2 3.2s1.436 3.2 3.2 3.2c1.764 0 3.2-1.436 3.2-3.2s-1.436-3.2-3.2-3.2zM6.756 24.889c-0.98 0-1.778-0.797-1.778-1.778s0.798-1.778 1.778-1.778c0.98 0 1.778 0.797 1.778 1.778s-0.798 1.778-1.778 1.778z"></path>
<path fill="#3fa9f5" d="M23.822 19.911c-1.764 0-3.2 1.436-3.2 3.2s1.436 3.2 3.2 3.2c1.764 0 3.2-1.436 3.2-3.2s-1.436-3.2-3.2-3.2zM23.822 24.889c-0.98 0-1.778-0.797-1.778-1.778s0.798-1.778 1.778-1.778c0.98 0 1.778 0.797 1.778 1.778s-0.798 1.778-1.778 1.778z"></path>
</svg>
