<!-- Generated by IcoMoon.io -->
<svg version="1.1" xmlns="http://www.w3.org/2000/svg" width="41" height="32" viewBox="0 0 41 32">
<title>group33</title>
<path fill="#3fa9f5" d="M28.585 15.297c4.136 0 7.501-3.365 7.501-7.501s-3.365-7.501-7.501-7.501c-4.137 0-7.502 3.365-7.502 7.501s3.366 7.501 7.502 7.501zM28.585 1.979c3.208 0 5.816 2.61 5.816 5.817s-2.61 5.816-5.816 5.816c-3.208 0-5.818-2.61-5.818-5.816s2.611-5.817 5.818-5.817z"></path>
<path fill="#3fa9f5" d="M28.632 18.329c-7.075 0-12.632 5.755-12.632 12.829v0.842h25.263v-0.842c0-7.074-5.557-12.829-12.631-12.829zM17.471 30.316c0.432-5.754 5.251-10.302 11.114-10.302 5.861 0 10.681 4.549 11.112 10.302h-22.227z"></path>
<path fill="#3fa9f5" d="M10.36 18.613c3.379 0 6.129-2.749 6.129-6.13s-2.749-6.129-6.129-6.129c-3.38 0-6.13 2.749-6.13 6.129s2.75 6.13 6.13 6.13zM10.36 8.039c2.451 0 4.445 1.994 4.445 4.445s-1.994 4.445-4.445 4.445c-2.452 0-4.446-1.994-4.446-4.445s1.994-4.445 4.446-4.445z"></path>
<path fill="#3fa9f5" d="M0 31.158v0.842h12.632v-1.684h-10.91c0.402-4.541 4.029-7.985 8.588-7.985 1.722 0 3.145 0.346 4.351 1.057l0.856-1.451c-1.472-0.868-3.176-1.29-5.207-1.29-5.782 0-10.31 4.617-10.31 10.511z"></path>
</svg>
