<!-- Generated by IcoMoon.io -->
<svg version="1.1" xmlns="http://www.w3.org/2000/svg" width="33" height="32" viewBox="0 0 33 32">
<title>group32</title>
<path fill="#3fa9f5" d="M21.986 15.862c0.618 0.474 1.318 1.011 2.45 1.011 1.003 0 1.702-0.514 2.319-0.967 0.568-0.418 1.059-0.778 1.754-0.778 0.679 0 1.146 0.351 1.687 0.756 0.618 0.464 1.319 0.989 2.385 0.989v-1.164c-0.679 0-1.146-0.351-1.687-0.756-0.618-0.464-1.319-0.989-2.385-0.989-1.076 0-1.802 0.534-2.443 1.005-0.541 0.397-1.008 0.741-1.63 0.741-0.737 0-1.203-0.357-1.743-0.77-0.478-0.367-1.012-0.767-1.748-0.914v-3.611c1.326-0.27 2.327-1.445 2.327-2.85 0-1.604-1.305-2.909-2.909-2.909s-2.909 1.305-2.909 2.909c0 1.405 1.001 2.58 2.327 2.85v3.611c-0.752 0.147-1.306 0.555-1.804 0.929-0.541 0.406-1.008 0.756-1.687 0.756s-1.146-0.351-1.687-0.756c-0.618-0.464-1.319-0.989-2.385-0.989s-1.768 0.525-2.386 0.989c-0.541 0.406-1.009 0.756-1.688 0.756-0.683 0-1.158-0.353-1.707-0.763-0.618-0.461-1.321-0.983-2.371-0.983-1.089 0-1.796 0.532-2.415 1.001-0.527 0.399-1.070 0.744-1.652 0.744v1.164c1.164 0 1.749-0.521 2.355-0.982 0.54-0.41 1.021-0.764 1.718-0.764 0.663 0 1.13 0.349 1.672 0.752 0.624 0.465 1.332 0.993 2.401 0.993 1.066 0 1.768-0.525 2.385-0.989 0.541-0.406 1.008-0.756 1.687-0.756s1.146 0.351 1.687 0.756c0.618 0.464 1.319 0.989 2.385 0.989s1.768-0.525 2.385-0.989c0.371-0.279 0.712-0.521 1.105-0.653v2.867c-0.752 0.147-1.306 0.555-1.804 0.929-0.541 0.406-1.008 0.756-1.687 0.756s-1.146-0.351-1.687-0.756c-0.618-0.464-1.319-0.989-2.385-0.989s-1.768 0.525-2.386 0.989c-0.541 0.406-1.009 0.756-1.688 0.756-0.683 0-1.158-0.353-1.707-0.763-0.618-0.461-1.321-0.983-2.371-0.983-1.089 0-1.796 0.532-2.415 1.001-0.527 0.399-1.070 0.744-1.652 0.744v1.164c1.164 0 1.749-0.521 2.355-0.982 0.54-0.41 1.021-0.764 1.718-0.764 0.663 0 1.13 0.349 1.672 0.752 0.624 0.465 1.332 0.993 2.401 0.993 1.066 0 1.768-0.525 2.385-0.989 0.541-0.406 1.008-0.756 1.687-0.756s1.146 0.351 1.687 0.756c0.618 0.464 1.319 0.989 2.385 0.989s1.768-0.525 2.385-0.989c0.371-0.279 0.712-0.521 1.105-0.653v7.46c0 2.245-1.827 4.073-4.073 4.073s-4.073-1.828-4.073-4.073v-1.505l2.498 2.498 0.823-0.823-4.484-4.484v4.314c0 2.888 2.349 5.236 5.236 5.236s5.236-2.349 5.236-5.236v-7.458c0.366 0.126 0.68 0.353 1.041 0.63 0.618 0.474 1.318 1.011 2.45 1.011 1.003 0 1.702-0.514 2.319-0.967 0.568-0.418 1.059-0.778 1.754-0.778 0.679 0 1.146 0.351 1.687 0.756 0.618 0.464 1.319 0.989 2.385 0.989v-1.164c-0.679 0-1.146-0.351-1.687-0.756-0.618-0.464-1.319-0.989-2.385-0.989-1.076 0-1.802 0.534-2.443 1.005-0.541 0.397-1.008 0.741-1.63 0.741-0.737 0-1.203-0.357-1.743-0.77-0.478-0.367-1.012-0.767-1.748-0.914v-2.865c0.366 0.125 0.68 0.353 1.041 0.63zM18.618 7.564c0-0.962 0.783-1.745 1.745-1.745s1.745 0.783 1.745 1.745c0 0.962-0.783 1.745-1.745 1.745s-1.745-0.783-1.745-1.745z"></path>
<path fill="#3fa9f5" d="M20.945 0h-1.164v4.655h1.164v-4.655z"></path>
</svg>
