<svg aria-hidden="true" style="position: absolute; width: 0; height: 0; overflow: hidden;" version="1.1" xmlns="http://www.w3.org/2000/svg" xmlns:xlink="http://www.w3.org/1999/xlink">
<defs>
<symbol id="icon-group29" viewBox="0 0 27 32">
<path fill="#3fa9f5" style="fill: var(--color1, #3fa9f5)" d="M9.771 11.738c3.144 0 5.702-2.558 5.702-5.702s-2.558-5.701-5.702-5.701c-3.145 0-5.702 2.557-5.702 5.701s2.558 5.702 5.702 5.702zM9.771 1.567c2.465 0 4.471 2.006 4.471 4.47s-2.006 4.471-4.471 4.471-4.471-2.006-4.471-4.471c0-2.465 2.006-4.47 4.471-4.47z"></path>
<path fill="#3fa9f5" style="fill: var(--color1, #3fa9f5)" d="M11.692 23.384h-10.442c0.297-4.572 3.882-8.070 8.404-8.070 1.672 0 3.013 0.332 4.219 1.043l0.625-1.060c-1.404-0.828-2.943-1.214-4.844-1.214-5.414 0-9.655 4.356-9.655 9.916v0.615h11.692v-1.23z"></path>
<path fill="#3fa9f5" style="fill: var(--color1, #3fa9f5)" d="M26.91 28.319l-3.558-4.35c0.41-0.718 0.647-1.546 0.647-2.43 0-2.714-2.209-4.923-4.923-4.923s-4.923 2.209-4.923 4.923c0 0.884 0.238 1.713 0.647 2.43l-3.558 4.35c-0.151 0.185-0.182 0.442-0.078 0.657s0.305 0.35 0.563 0.348l2.412-0.035 0.857 2.237c0.086 0.225 0.296 0.379 0.537 0.394 0.013 0.001 0.025 0.001 0.038 0.001 0.226 0 0.436-0.125 0.543-0.326l2.735-5.144c0.075 0.004 0.15 0.012 0.226 0.012s0.151-0.008 0.226-0.012l2.735 5.144c0.107 0.201 0.317 0.326 0.543 0.326 0.013 0 0.025-0.001 0.038-0.001 0.241-0.015 0.45-0.169 0.537-0.394l0.857-2.237 2.412 0.035c0.261 0.005 0.459-0.133 0.563-0.348s0.073-0.472-0.079-0.657zM15.663 29.823l-0.527-1.376c-0.092-0.242-0.298-0.408-0.583-0.396l-1.519 0.022 2.53-3.092c0.553 0.565 1.242 0.998 2.013 1.245l-1.913 3.598zM15.385 21.538c0-2.036 1.656-3.692 3.692-3.692s3.692 1.656 3.692 3.692c0 2.036-1.656 3.692-3.692 3.692s-3.692-1.656-3.692-3.692zM23.602 28.052c-0.252-0.009-0.491 0.154-0.583 0.396l-0.527 1.376-1.913-3.598c0.771-0.247 1.459-0.68 2.013-1.245l2.53 3.092-1.519-0.022z"></path>
</symbol>
<symbol id="icon-group30" viewBox="0 0 39 32">
<path fill="#3fa9f5" style="fill: var(--color1, #3fa9f5)" d="M34.667 6.222h-8v-1.778c0-2.451-1.994-4.444-4.444-4.444h-5.333c-2.451 0-4.444 1.994-4.444 4.444v1.778h-8c-2.451 0-4.444 1.994-4.444 4.444v16.889c0 2.451 1.994 4.444 4.444 4.444h30.222c2.451 0 4.444-1.994 4.444-4.444v-16.889c0-2.451-1.994-4.444-4.444-4.444zM14.222 4.444c0-1.47 1.196-2.667 2.667-2.667h5.333c1.47 0 2.667 1.196 2.667 2.667v1.778h-10.667v-1.778zM37.333 27.556c0 1.47-1.196 2.667-2.667 2.667h-30.222c-1.47 0-2.667-1.196-2.667-2.667v-16.889c0-1.47 1.196-2.667 2.667-2.667h30.222c1.47 0 2.667 1.196 2.667 2.667v16.889z"></path>
<path fill="#3fa9f5" style="fill: var(--color1, #3fa9f5)" d="M12.444 20.444h-1.778v7.111h1.778v-7.111z"></path>
<path fill="#3fa9f5" style="fill: var(--color1, #3fa9f5)" d="M17.778 17.778h-1.778v9.778h1.778v-9.778z"></path>
<path fill="#3fa9f5" style="fill: var(--color1, #3fa9f5)" d="M23.111 15.111h-1.778v12.444h1.778v-12.444z"></path>
<path fill="#3fa9f5" style="fill: var(--color1, #3fa9f5)" d="M28.444 12.444h-1.778v15.111h1.778v-15.111z"></path>
</symbol>
<symbol id="icon-group31" viewBox="0 0 31 32">
<path fill="#3fa9f5" style="fill: var(--color1, #3fa9f5)" d="M30.578 4.978c0-2.744-2.233-4.978-4.978-4.978h-20.622c-2.745 0-4.978 2.234-4.978 4.978v24.178h4.267v2.844h1.422v-2.844h19.2v2.844h1.422v-2.844h4.267v-24.178zM19.492 17.067c-0.341-2.015-2.092-3.556-4.203-3.556s-3.862 1.541-4.203 3.556h-9.664v-11.378h27.733v11.378h-9.664zM18.032 17.067h-5.487c0.318-1.224 1.422-2.133 2.743-2.133s2.426 0.909 2.743 2.133zM4.978 1.422h20.622c1.717 0 3.153 1.224 3.484 2.844h-27.59c0.331-1.621 1.766-2.844 3.484-2.844zM1.422 27.733v-9.244h27.733v9.244h-27.733z"></path>
<path fill="#3fa9f5" style="fill: var(--color1, #3fa9f5)" d="M6.756 19.911c-1.764 0-3.2 1.436-3.2 3.2s1.436 3.2 3.2 3.2c1.764 0 3.2-1.436 3.2-3.2s-1.436-3.2-3.2-3.2zM6.756 24.889c-0.98 0-1.778-0.797-1.778-1.778s0.798-1.778 1.778-1.778c0.98 0 1.778 0.797 1.778 1.778s-0.798 1.778-1.778 1.778z"></path>
<path fill="#3fa9f5" style="fill: var(--color1, #3fa9f5)" d="M23.822 19.911c-1.764 0-3.2 1.436-3.2 3.2s1.436 3.2 3.2 3.2c1.764 0 3.2-1.436 3.2-3.2s-1.436-3.2-3.2-3.2zM23.822 24.889c-0.98 0-1.778-0.797-1.778-1.778s0.798-1.778 1.778-1.778c0.98 0 1.778 0.797 1.778 1.778s-0.798 1.778-1.778 1.778z"></path>
</symbol>
<symbol id="icon-group32" viewBox="0 0 33 32">
<path fill="#3fa9f5" style="fill: var(--color1, #3fa9f5)" d="M21.986 15.862c0.618 0.474 1.318 1.011 2.45 1.011 1.003 0 1.702-0.514 2.319-0.967 0.568-0.418 1.059-0.778 1.754-0.778 0.679 0 1.146 0.351 1.687 0.756 0.618 0.464 1.319 0.989 2.385 0.989v-1.164c-0.679 0-1.146-0.351-1.687-0.756-0.618-0.464-1.319-0.989-2.385-0.989-1.076 0-1.802 0.534-2.443 1.005-0.541 0.397-1.008 0.741-1.63 0.741-0.737 0-1.203-0.357-1.743-0.77-0.478-0.367-1.012-0.767-1.748-0.914v-3.611c1.326-0.27 2.327-1.445 2.327-2.85 0-1.604-1.305-2.909-2.909-2.909s-2.909 1.305-2.909 2.909c0 1.405 1.001 2.58 2.327 2.85v3.611c-0.752 0.147-1.306 0.555-1.804 0.929-0.541 0.406-1.008 0.756-1.687 0.756s-1.146-0.351-1.687-0.756c-0.618-0.464-1.319-0.989-2.385-0.989s-1.768 0.525-2.386 0.989c-0.541 0.406-1.009 0.756-1.688 0.756-0.683 0-1.158-0.353-1.707-0.763-0.618-0.461-1.321-0.983-2.371-0.983-1.089 0-1.796 0.532-2.415 1.001-0.527 0.399-1.070 0.744-1.652 0.744v1.164c1.164 0 1.749-0.521 2.355-0.982 0.54-0.41 1.021-0.764 1.718-0.764 0.663 0 1.13 0.349 1.672 0.752 0.624 0.465 1.332 0.993 2.401 0.993 1.066 0 1.768-0.525 2.385-0.989 0.541-0.406 1.008-0.756 1.687-0.756s1.146 0.351 1.687 0.756c0.618 0.464 1.319 0.989 2.385 0.989s1.768-0.525 2.385-0.989c0.371-0.279 0.712-0.521 1.105-0.653v2.867c-0.752 0.147-1.306 0.555-1.804 0.929-0.541 0.406-1.008 0.756-1.687 0.756s-1.146-0.351-1.687-0.756c-0.618-0.464-1.319-0.989-2.385-0.989s-1.768 0.525-2.386 0.989c-0.541 0.406-1.009 0.756-1.688 0.756-0.683 0-1.158-0.353-1.707-0.763-0.618-0.461-1.321-0.983-2.371-0.983-1.089 0-1.796 0.532-2.415 1.001-0.527 0.399-1.070 0.744-1.652 0.744v1.164c1.164 0 1.749-0.521 2.355-0.982 0.54-0.41 1.021-0.764 1.718-0.764 0.663 0 1.13 0.349 1.672 0.752 0.624 0.465 1.332 0.993 2.401 0.993 1.066 0 1.768-0.525 2.385-0.989 0.541-0.406 1.008-0.756 1.687-0.756s1.146 0.351 1.687 0.756c0.618 0.464 1.319 0.989 2.385 0.989s1.768-0.525 2.385-0.989c0.371-0.279 0.712-0.521 1.105-0.653v7.46c0 2.245-1.827 4.073-4.073 4.073s-4.073-1.828-4.073-4.073v-1.505l2.498 2.498 0.823-0.823-4.484-4.484v4.314c0 2.888 2.349 5.236 5.236 5.236s5.236-2.349 5.236-5.236v-7.458c0.366 0.126 0.68 0.353 1.041 0.63 0.618 0.474 1.318 1.011 2.45 1.011 1.003 0 1.702-0.514 2.319-0.967 0.568-0.418 1.059-0.778 1.754-0.778 0.679 0 1.146 0.351 1.687 0.756 0.618 0.464 1.319 0.989 2.385 0.989v-1.164c-0.679 0-1.146-0.351-1.687-0.756-0.618-0.464-1.319-0.989-2.385-0.989-1.076 0-1.802 0.534-2.443 1.005-0.541 0.397-1.008 0.741-1.63 0.741-0.737 0-1.203-0.357-1.743-0.77-0.478-0.367-1.012-0.767-1.748-0.914v-2.865c0.366 0.125 0.68 0.353 1.041 0.63zM18.618 7.564c0-0.962 0.783-1.745 1.745-1.745s1.745 0.783 1.745 1.745c0 0.962-0.783 1.745-1.745 1.745s-1.745-0.783-1.745-1.745z"></path>
<path fill="#3fa9f5" style="fill: var(--color1, #3fa9f5)" d="M20.945 0h-1.164v4.655h1.164v-4.655z"></path>
</symbol>
<symbol id="icon-group33" viewBox="0 0 41 32">
<path fill="#3fa9f5" style="fill: var(--color1, #3fa9f5)" d="M28.585 15.297c4.136 0 7.501-3.365 7.501-7.501s-3.365-7.501-7.501-7.501c-4.137 0-7.502 3.365-7.502 7.501s3.366 7.501 7.502 7.501zM28.585 1.979c3.208 0 5.816 2.61 5.816 5.817s-2.61 5.816-5.816 5.816c-3.208 0-5.818-2.61-5.818-5.816s2.611-5.817 5.818-5.817z"></path>
<path fill="#3fa9f5" style="fill: var(--color1, #3fa9f5)" d="M28.632 18.329c-7.075 0-12.632 5.755-12.632 12.829v0.842h25.263v-0.842c0-7.074-5.557-12.829-12.631-12.829zM17.471 30.316c0.432-5.754 5.251-10.302 11.114-10.302 5.861 0 10.681 4.549 11.112 10.302h-22.227z"></path>
<path fill="#3fa9f5" style="fill: var(--color1, #3fa9f5)" d="M10.36 18.613c3.379 0 6.129-2.749 6.129-6.13s-2.749-6.129-6.129-6.129c-3.38 0-6.13 2.749-6.13 6.129s2.75 6.13 6.13 6.13zM10.36 8.039c2.451 0 4.445 1.994 4.445 4.445s-1.994 4.445-4.445 4.445c-2.452 0-4.446-1.994-4.446-4.445s1.994-4.445 4.446-4.445z"></path>
<path fill="#3fa9f5" style="fill: var(--color1, #3fa9f5)" d="M0 31.158v0.842h12.632v-1.684h-10.91c0.402-4.541 4.029-7.985 8.588-7.985 1.722 0 3.145 0.346 4.351 1.057l0.856-1.451c-1.472-0.868-3.176-1.29-5.207-1.29-5.782 0-10.31 4.617-10.31 10.511z"></path>
</symbol>
<symbol id="icon-group34" viewBox="0 0 29 32">
<path fill="#3fa9f5" style="fill: var(--color1, #3fa9f5)" d="M14.298 12.255h8.157l5.966-5.294-5.981-4.919h-8.142v-2.043h-1.362v2.043h-11.574v10.213h11.574v3.404h-6.904l-5.967 5.28 5.981 4.933h6.89v4.766h-6.809v1.362h15.66v-1.362h-7.489v-4.766h12.255v-10.213h-12.255v-3.404zM2.724 3.404h19.229l4.373 3.596-4.387 3.893h-19.214v-7.489zM25.192 17.021v7.489h-18.656l-4.374-3.608 4.387-3.882h18.643z"></path>
</symbol>
<symbol id="icon-group35" viewBox="0 0 33 32">
<path fill="#3fa9f5" style="fill: var(--color1, #3fa9f5)" d="M30.202 0h-26.98c-1.716 0-3.221 1.642-3.221 3.514v17.569c0 1.736 1.414 3.095 3.221 3.095h1.756v7.312l7.932-7.312h17.291c1.806 0 3.221-1.36 3.221-3.095v-17.569c0.001-1.872-1.504-3.514-3.22-3.514zM32 21.082c0 0.954-0.773 1.673-1.798 1.673h-17.847l-5.955 5.488v-5.488h-3.179c-1.025 0-1.798-0.72-1.798-1.673v-17.569c0-1.055 0.891-2.091 1.798-2.091h26.98c0.907 0 1.798 1.036 1.798 2.091v17.569h0.001z"></path>
<path fill="#3fa9f5" style="fill: var(--color1, #3fa9f5)" d="M16.285 4.535c-4.26 0-7.726 3.454-7.726 7.699s3.466 7.699 7.726 7.699c4.26 0 7.725-3.454 7.725-7.699s-3.465-7.699-7.725-7.699zM22.522 11.378h-2.953c-0.087-1.894-0.454-3.728-1.086-5.020 2.133 0.795 3.72 2.707 4.038 5.020zM16.285 18.406c-0.599 0-1.74-1.976-1.871-5.606h3.74c-0.13 3.631-1.271 5.606-1.869 5.606zM14.421 11.378c0.164-3.507 1.275-5.41 1.863-5.41s1.7 1.904 1.862 5.41h-3.725zM14.087 6.358c-0.633 1.291-1 3.125-1.087 5.020h-2.953c0.318-2.313 1.905-4.225 4.040-5.020zM10.009 12.8h2.982c0.072 2.023 0.464 3.993 1.157 5.333-2.255-0.814-3.916-2.866-4.139-5.333zM18.42 18.133c0.693-1.338 1.084-3.309 1.156-5.333h2.982c-0.223 2.466-1.883 4.52-4.139 5.333z"></path>
</symbol>
<symbol id="icon-group36" viewBox="0 0 46 32">
<path fill="#3fa9f5" style="fill: var(--color1, #3fa9f5)" d="M40.331 16.8l-4-4h-2.4l-4-4h-13.131v-8.8h-4.8v8.8h-4.8v4h-2.4v4h-4.27l4.471 15.2h33.934l6.258-15.2h-4.863zM13.6 1.6h1.6v7.2h-1.6v-7.2zM8.8 10.4h20.469l2.4 2.4h-22.869v-2.4zM6.4 14.4h29.269l2.4 2.4h-31.669v-2.4zM37.864 30.4h-31.666l-3.529-12h40.136l-4.942 12z"></path>
<path fill="#3fa9f5" style="fill: var(--color1, #3fa9f5)" d="M12 21.2c-1.765 0-3.2 1.435-3.2 3.2s1.435 3.2 3.2 3.2c1.765 0 3.2-1.435 3.2-3.2s-1.435-3.2-3.2-3.2zM12 26c-0.882 0-1.6-0.718-1.6-1.6s0.718-1.6 1.6-1.6c0.882 0 1.6 0.718 1.6 1.6s-0.718 1.6-1.6 1.6z"></path>
<path fill="#3fa9f5" style="fill: var(--color1, #3fa9f5)" d="M22.4 21.2c-1.765 0-3.2 1.435-3.2 3.2s1.435 3.2 3.2 3.2c1.765 0 3.2-1.435 3.2-3.2s-1.435-3.2-3.2-3.2zM22.4 26c-0.882 0-1.6-0.718-1.6-1.6s0.718-1.6 1.6-1.6c0.882 0 1.6 0.718 1.6 1.6s-0.718 1.6-1.6 1.6z"></path>
<path fill="#3fa9f5" style="fill: var(--color1, #3fa9f5)" d="M32.8 21.2c-1.765 0-3.2 1.435-3.2 3.2s1.435 3.2 3.2 3.2c1.765 0 3.2-1.435 3.2-3.2s-1.435-3.2-3.2-3.2zM32.8 26c-0.882 0-1.6-0.718-1.6-1.6s0.718-1.6 1.6-1.6c0.882 0 1.6 0.718 1.6 1.6s-0.718 1.6-1.6 1.6z"></path>
</symbol>
</defs>
</svg>
